<?xml version="1.0" standalone="no"?>
<!DOCTYPE svg PUBLIC "-//W3C//DTD SVG 20010904//EN"
 "http://www.w3.org/TR/2001/REC-SVG-20010904/DTD/svg10.dtd">
<svg version="1.0" xmlns="http://www.w3.org/2000/svg"
 width="180.000000pt" height="180.000000pt" viewBox="0 0 180.000000 180.000000"
 preserveAspectRatio="xMidYMid meet">
<metadata>
Created by potrace 1.10, written by Peter Selinger 2001-2011
</metadata>
<g transform="translate(0.000000,180.000000) scale(0.100000,-0.100000)"
fill="#000000" stroke="none">
<path d="M724 1614 c-87 -102 -163 -192 -167 -200 -10 -18 1 -54 17 -54 6 0
20 14 31 32 10 18 20 28 22 22 2 -6 -10 -121 -27 -257 -16 -136 -30 -265 -30
-287 0 -23 13 -72 30 -112 l31 -72 -43 -37 c-24 -20 -40 -40 -36 -44 4 -4 34
10 67 30 165 102 398 96 564 -13 20 -14 40 -22 44 -19 10 10 -24 43 -81 79
-28 17 -52 33 -54 34 -2 1 24 65 58 143 38 90 60 155 60 179 0 20 -9 105 -20
187 -24 184 -24 172 0 150 22 -20 25 -19 34 11 7 23 -1 34 -218 287 -60 70
-113 127 -116 127 -4 0 -78 -84 -166 -186z m189 84 c8 -13 44 -56 79 -96 l64
-74 -3 -100 c-2 -58 -8 -107 -14 -115 -7 -7 -15 -49 -19 -92 -6 -68 -18 -105
-86 -265 -72 -170 -94 -210 -94 -172 0 8 -16 52 -36 98 -28 62 -38 103 -44
165 -4 56 -12 89 -24 101 -14 16 -16 42 -15 180 0 89 -2 166 -5 171 -4 5 17
38 46 72 29 34 69 81 88 105 19 24 37 44 41 44 4 0 13 -10 22 -22z m206 -237
c22 -27 31 -50 31 -75 0 -20 9 -110 20 -200 l20 -163 -61 -144 c-34 -79 -63
-145 -64 -147 -2 -2 -33 4 -70 13 -36 9 -77 14 -90 11 -31 -8 -32 6 -6 60 10
21 44 99 76 173 45 106 58 150 65 213 8 83 23 115 40 88 5 -8 10 -65 10 -126
0 -107 -1 -114 -40 -207 -39 -92 -49 -134 -31 -123 4 3 27 50 50 105 40 99 41
101 41 223 0 97 -3 128 -16 147 -11 16 -17 47 -18 107 0 46 2 84 6 84 3 0 20
-18 37 -39z m-419 -138 c0 -144 -2 -169 -17 -186 -15 -16 -18 -39 -18 -141 0
-111 3 -128 29 -194 16 -40 27 -73 25 -75 -2 -1 -18 -9 -36 -19 l-31 -16 -33
81 -33 81 32 275 c18 152 32 285 32 296 0 23 26 65 41 65 5 0 9 -69 9 -167z
m25 -212 c3 -11 10 -53 14 -94 6 -52 21 -102 50 -167 22 -52 39 -95 38 -96 -2
-2 -21 -6 -43 -9 l-40 -7 -27 66 c-24 60 -27 78 -27 190 0 67 3 126 7 129 11
12 21 8 28 -12z"/>
<path d="M810 1405 c0 -54 0 -55 30 -55 30 0 30 1 30 55 0 54 0 55 -30 55 -30
0 -30 -1 -30 -55z"/>
<path d="M910 1405 c0 -54 0 -55 30 -55 30 0 30 1 30 55 0 54 0 55 -30 55 -30
0 -30 -1 -30 -55z"/>
<path d="M812 1248 c3 -49 5 -53 31 -55 26 -2 27 -1 27 53 0 54 0 54 -31 54
l-30 0 3 -52z"/>
<path d="M910 1246 c0 -54 1 -55 28 -53 25 2 27 6 30 55 l3 52 -30 0 c-31 0
-31 0 -31 -54z"/>
<path d="M1061 1137 c-1 -10 -28 -81 -62 -159 -77 -178 -80 -188 -70 -188 10
0 99 206 127 290 9 27 14 55 11 62 -3 8 -6 6 -6 -5z"/>
<path d="M1121 1008 c0 -10 -17 -56 -37 -104 -19 -47 -33 -91 -31 -97 6 -18
78 174 74 197 -3 15 -5 16 -6 4z"/>
<path d="M672 1354 c-1 -23 -4 -57 -7 -75 -5 -31 -5 -32 5 -9 6 13 9 47 7 75
-3 46 -3 47 -5 9z"/>
<path d="M610 878 c1 -28 38 -119 40 -95 0 5 -5 17 -11 28 -5 11 -11 38 -11
60 0 21 -4 39 -9 39 -5 0 -9 -15 -9 -32z"/>
<path d="M645 389 c-74 -22 -125 -72 -125 -124 0 -23 13 -18 59 21 51 44 126
59 137 29 8 -20 -45 -75 -71 -75 -13 0 -13 3 1 25 9 14 14 28 11 32 -9 9 -36
-16 -53 -49 -9 -17 -23 -28 -35 -28 -23 0 -37 -29 -20 -40 10 -6 9 -18 -5 -57
-20 -58 -14 -94 20 -113 52 -27 140 48 134 115 -2 24 -11 34 -45 50 -24 11
-43 23 -43 26 0 4 17 10 39 14 48 8 90 50 98 98 4 29 1 40 -20 61 -28 28 -35
29 -82 15z m-10 -233 c42 -18 44 -38 9 -71 -31 -29 -47 -31 -64 -10 -10 12
-10 24 -1 55 6 22 14 40 17 40 2 0 20 -7 39 -14z"/>
<path d="M1127 283 c-15 -39 -31 -67 -38 -65 -17 4 -59 -37 -78 -78 -22 -47
-44 -80 -53 -80 -14 0 -9 30 12 70 47 92 10 109 -40 19 -35 -61 -58 -64 -25
-2 13 24 15 37 8 44 -8 8 -16 3 -27 -19 -9 -17 -16 -37 -16 -45 0 -8 -10 -27
-21 -41 -28 -36 -43 -16 -24 31 16 38 23 109 12 120 -13 12 -60 -22 -91 -66
-31 -43 -40 -108 -19 -146 10 -17 13 -15 34 18 30 45 37 46 35 4 -1 -44 14
-48 40 -10 l21 32 10 -32 9 -32 27 59 c30 66 45 70 26 8 -11 -39 -8 -72 8 -72
5 0 19 18 33 39 26 43 40 44 40 5 0 -33 16 -30 35 6 19 36 40 40 31 6 -6 -25
1 -56 13 -56 4 0 15 14 24 30 21 35 37 39 37 10 0 -32 27 -34 62 -6 54 43 68
59 68 75 -1 12 -6 10 -21 -8 -24 -30 -33 -23 -19 15 12 30 6 89 -10 99 -5 3
-18 2 -28 -4 -17 -9 -26 -24 -70 -118 -45 -98 -38 31 9 140 29 68 37 117 20
117 -5 0 -20 -30 -34 -67z m-307 -111 c0 -4 -17 -32 -37 -62 -37 -54 -38 -54
-41 -26 -3 21 5 37 29 62 32 33 49 42 49 26z m270 -12 c0 -15 -51 -90 -61 -90
-18 0 -8 39 17 69 26 31 44 40 44 21z m125 -17 c-4 -10 -9 -33 -12 -51 -6 -36
-21 -51 -33 -32 -8 13 5 65 23 88 14 18 30 15 22 -5z"/>
</g>
</svg>
